<svg width="34" height="42" viewBox="0 0 34 42" fill="none" xmlns="http://www.w3.org/2000/svg">
<path fill-rule="evenodd" clip-rule="evenodd" d="M12.2142 0.0941531C9.39432 0.669329 7.10506 2.57857 6.13727 5.16222C5.67434 6.39794 5.56524 7.37017 5.84765 7.74169L6.02289 7.9721L5.81801 8.42522C5.70532 8.67443 5.53912 9.11261 5.4487 9.39884C5.29414 9.88799 5.27144 9.91623 5.07259 9.8673C4.93654 9.83381 4.73216 9.87641 4.49982 9.98666C3.94697 10.2491 3.84641 10.5709 3.95727 11.7233C4.00524 12.2223 4.09801 12.7319 4.1634 12.8559C4.3188 13.1504 4.6409 13.352 4.95621 13.352C5.16327 13.352 5.21811 13.3926 5.26073 13.5778C5.91715 16.4251 7.8998 18.7288 10.6081 19.7911C11.6256 20.1902 12.5295 20.3571 13.7102 20.364C14.9265 20.3711 15.6208 20.2623 16.6825 19.8983C17.5384 19.6047 17.8816 19.4381 18.6461 18.9445C20.3362 17.8535 21.6433 16.086 22.2053 14.1318C22.4081 13.4267 22.4293 13.3918 22.669 13.3659C22.9812 13.3321 23.253 13.1656 23.4311 12.8992C23.6313 12.5995 23.7801 10.8299 23.634 10.4842C23.4761 10.1104 23.0982 9.87765 22.6598 9.88413C22.2998 9.88947 22.2933 9.88462 22.2072 9.54807C22.1592 9.36034 22.0296 8.99432 21.9193 8.73468L21.7187 8.26269H23.1384C24.6489 8.26269 24.9454 8.2058 25.2645 7.85497C25.3872 7.7201 25.432 7.55478 25.432 7.23661C25.432 6.91845 25.3872 6.75313 25.2645 6.61826C24.9475 6.26972 24.646 6.21054 23.1876 6.21054H21.817L21.5423 5.38845C20.8712 3.3794 19.2239 1.55536 17.3135 0.706186C16.184 0.204066 15.413 0.0390734 14.0451 0.00664951C13.1733 -0.0139541 12.6134 0.012806 12.2142 0.0941531ZM12.2868 2.19153C11.0255 2.51971 9.79295 3.30798 9.00918 4.28768C8.68792 4.68924 7.9749 5.98078 7.9749 6.16104C7.9749 6.18829 10.5935 6.21054 13.7939 6.21054C16.9944 6.21054 19.6129 6.19675 19.6129 6.17984C19.6129 6.032 19.2926 5.32738 19.0225 4.88116C18.4337 3.90828 17.3717 2.98735 16.3046 2.52464C15.136 2.01784 13.4815 1.88067 12.2868 2.19153ZM7.99902 8.71047C7.41058 9.71495 7.06538 11.2609 7.17205 12.4145C7.48317 15.7803 10.3558 18.3593 13.7939 18.3593C17.5918 18.3593 20.6146 15.2773 20.4293 11.5942C20.3769 10.5546 20.1871 9.82921 19.7438 8.97421L19.3962 8.30373L13.8291 8.28263L8.262 8.26154L7.99902 8.71047ZM10.5146 10.6511C9.8575 10.8376 9.57216 11.7558 10.023 12.2327C10.315 12.5416 10.5678 12.6132 11.3658 12.6132C12.1638 12.6132 12.4167 12.5416 12.7087 12.2327C12.8679 12.0643 12.9148 11.9254 12.9148 11.6225C12.9148 11.1402 12.6358 10.771 12.1768 10.6461C11.804 10.5445 10.8802 10.5474 10.5146 10.6511ZM15.4545 10.6511C15.1458 10.7388 14.7609 11.1513 14.7475 11.4088C14.7009 12.3057 15.0987 12.6132 16.3057 12.6132C17.1376 12.6132 17.4931 12.4904 17.7118 12.1273C18.0559 11.5562 17.7607 10.8214 17.1167 10.6461C16.7439 10.5445 15.8201 10.5474 15.4545 10.6511ZM13.2736 14.5588C12.9766 14.6152 12.5985 15.0184 12.5358 15.3455C12.4581 15.7521 12.6971 16.2195 13.0822 16.4141C13.3028 16.5255 13.5175 16.5551 13.9499 16.534C14.4899 16.5076 14.5415 16.4876 14.8081 16.2025C15.0281 15.967 15.0917 15.828 15.0917 15.5817C15.0917 14.7947 14.3195 14.3602 13.2736 14.5588ZM8.92855 22.1817C6.47971 22.5851 4.25458 24.0935 3.35644 25.9589C3.19242 26.2997 2.62157 28.454 1.55807 32.7456L0 39.033L0.176496 39.3878C0.500603 40.0396 0.441324 40.0299 4.09667 40.0299C7.68538 40.0299 7.75763 40.0201 8.01032 39.4982C8.25556 38.9914 8.12168 38.478 7.6652 38.1746C7.45019 38.0318 7.22345 38.0168 4.9398 37.9938C3.12594 37.9756 2.44893 37.943 2.44893 37.874C2.44893 37.7246 4.95069 27.6418 5.1014 27.1835C5.50605 25.9535 7.09795 24.7259 8.81753 24.3178C9.67766 24.1136 9.71458 24.124 10.3682 24.751C11.3393 25.6826 12.4598 26.1119 13.9195 26.1119C15.3905 26.1119 16.5184 25.6771 17.4732 24.7419L18.0547 24.1724L18.5037 24.2274C19.3791 24.3346 20.5838 24.8239 21.3092 25.3668C22.0679 25.9346 22.3488 26.0094 22.8484 25.7769C23.189 25.6185 23.3806 25.296 23.3806 24.8813C23.3806 24.4531 23.1961 24.2011 22.5154 23.7003C21.2971 22.8039 19.5688 22.1881 17.9956 22.0897C17.028 22.0292 16.7464 22.1471 16.4162 22.7509C15.9615 23.5823 15.2555 23.9908 14.1183 24.0804C12.935 24.1736 11.9297 23.6778 11.4229 22.7509C11.0396 22.05 10.4896 21.9245 8.92855 22.1817ZM26.9179 24.111C26.4415 24.1562 26.1531 24.228 25.9896 24.3422C25.8141 24.4647 25.5107 25.0105 24.825 26.4377C24.315 27.499 23.8735 28.4759 23.8437 28.6083C23.7644 28.9628 23.9173 29.2471 25.0104 30.7771L25.9944 32.1545L23.9821 36.4C22.8753 38.7351 21.9454 40.7293 21.9156 40.8316C21.8356 41.1062 22.0173 41.5554 22.3042 41.7921C22.4911 41.9462 22.6523 42 22.9278 42C23.5992 42 23.6504 41.9173 25.8602 37.2632L27.8559 33.0599L28.2767 33.0183C28.508 32.9954 29.1871 32.9365 29.7858 32.8873C31.3087 32.7622 31.6865 32.6791 31.9425 32.4132C32.1446 32.203 33.8713 28.6734 33.9804 28.2473C34.0578 27.9453 33.924 27.6662 33.2581 26.7401C32.6424 25.8839 32.3657 25.6645 31.9025 25.6652C31.6175 25.6656 31.1937 25.9512 31.0369 26.2486C30.8374 26.6267 30.9296 26.9994 31.3813 27.6418L31.7683 28.192L31.1717 29.4487C30.8436 30.14 30.5603 30.72 30.5422 30.7377C30.5064 30.7728 28.2459 30.9957 27.896 30.9987C27.7132 31.0002 27.5578 30.8266 26.8608 29.8423L26.0407 28.6841L26.6064 27.4823C26.9175 26.8213 27.2045 26.2453 27.2441 26.2023C27.2838 26.1593 27.5939 26.0981 27.933 26.0664C28.2722 26.0346 28.6671 25.9491 28.8105 25.8764C29.4822 25.5358 29.4802 24.5005 28.807 24.1342C28.5941 24.0184 27.9754 24.0108 26.9179 24.111ZM16.4592 27.1504C16.1505 27.2381 15.7656 27.6506 15.7522 27.9081C15.7222 28.4868 15.8739 28.7829 16.3024 28.9823C16.5329 29.0895 16.9246 29.1125 18.5245 29.1125C20.6616 29.1125 20.8757 29.0728 21.1446 28.6266C21.4887 28.0555 21.1935 27.3207 20.5495 27.1453C20.1706 27.0421 16.8259 27.0463 16.4592 27.1504ZM10.5606 30.8266L10.2355 31.1454V36.197V41.2487L10.4502 41.4988C10.5683 41.6364 10.8038 41.7867 10.9735 41.833C11.4311 41.9576 18.4805 41.9376 18.8565 41.8107C19.457 41.608 19.7261 40.7901 19.3477 40.3184C18.9952 39.879 18.8821 39.8658 15.4711 39.8658H12.3287V36.1719V32.478H17.4859C22.1098 32.478 22.6671 32.4642 22.8749 32.3437C23.5152 31.973 23.544 31.0394 22.9274 30.6432C22.7367 30.5208 22.1553 30.508 16.8012 30.508H10.8857L10.5606 30.8266Z" fill="#0663D2"/>
</svg>
