<svg width="46" height="46" viewBox="0 0 46 46" fill="none" xmlns="http://www.w3.org/2000/svg">
<path d="M26.2119 15.3389C25.0098 16.1959 23.5388 16.7 21.95 16.7C17.8907 16.7 14.6 13.4093 14.6 9.35C14.6 5.29071 17.8907 2 21.95 2C24.5813 2 26.8896 3.38268 28.1881 5.4611M10.4 39.983H15.8816C16.5963 39.983 17.3067 40.0681 17.9995 40.2382L23.7915 41.6456C25.0482 41.9518 26.3574 41.9816 27.6273 41.7349L34.0312 40.489C35.7229 40.1595 37.2791 39.3494 38.4987 38.1631L43.0296 33.7556C44.3235 32.4991 44.3235 30.4601 43.0296 29.2014C41.8646 28.0682 40.0199 27.9406 38.702 28.9017L33.4215 32.7542C32.6652 33.307 31.7451 33.6046 30.7987 33.6046H25.6995L28.9452 33.6045C30.7746 33.6045 32.2565 32.163 32.2565 30.3834V29.7392C32.2565 28.2615 31.2227 26.9731 29.7496 26.6159L24.74 25.3977C23.9248 25.1999 23.0899 25.1 22.2506 25.1C20.2245 25.1 16.557 26.7775 16.557 26.7775L10.4 29.3522M39.8 11.45C39.8 15.5093 36.5093 18.8 32.45 18.8C28.3907 18.8 25.1 15.5093 25.1 11.45C25.1 7.39071 28.3907 4.1 32.45 4.1C36.5093 4.1 39.8 7.39071 39.8 11.45ZM2 28.46L2 40.64C2 41.8161 2 42.4042 2.22889 42.8534C2.43022 43.2485 2.75148 43.5698 3.14662 43.7711C3.59583 44 4.18389 44 5.36 44H7.04C8.21611 44 8.80416 44 9.25338 43.7711C9.64852 43.5698 9.96978 43.2485 10.1711 42.8534C10.4 42.4042 10.4 41.8161 10.4 40.64V28.46C10.4 27.2839 10.4 26.6958 10.1711 26.2466C9.96978 25.8515 9.64852 25.5302 9.25338 25.3289C8.80417 25.1 8.21611 25.1 7.04 25.1L5.36 25.1C4.18389 25.1 3.59584 25.1 3.14662 25.3289C2.75148 25.5302 2.43022 25.8515 2.22889 26.2466C2 26.6958 2 27.2839 2 28.46Z" stroke="white" stroke-width="3" stroke-linecap="round" stroke-linejoin="round"/>
</svg>
