<svg width="21" height="10" viewBox="0 0 21 10" fill="none" xmlns="http://www.w3.org/2000/svg">
<path d="M15.2188 0C18.125 0 20.5 2.25 20.5 5C20.5 7.78125 18.125 10 15.2188 10C13.1562 10 11.5312 8.71875 10.5 7.5625C9.4375 8.71875 7.84375 10 5.75 10C2.84375 10 0.5 7.78125 0.5 5C0.5 2.25 2.84375 0 5.75 0C7.84375 0 9.4375 1.3125 10.5 2.46875C11.5312 1.3125 13.1562 0 15.2188 0ZM5.75 7C6.96875 7 8.0625 5.875 8.6875 5C8.0625 4.15625 6.96875 3 5.75 3C4.5 3 3.5 3.90625 3.5 5C3.5 6.125 4.5 7 5.75 7ZM15.2188 7C16.4688 7 17.5 6.125 17.5 5C17.5 3.90625 16.4688 3 15.2188 3C14.0312 3 12.9062 4.15625 12.2812 5C12.9062 5.875 14 7 15.2188 7Z" fill="#363636"/>
</svg>
