<svg width="46" height="46" viewBox="0 0 46 46" fill="none" xmlns="http://www.w3.org/2000/svg">
<path d="M15.65 28.6C15.65 31.3062 17.8438 33.5 20.55 33.5H25.1C27.9995 33.5 30.35 31.1495 30.35 28.25C30.35 25.3505 27.9995 23 25.1 23H20.9C18.0005 23 15.65 20.6495 15.65 17.75C15.65 14.8505 18.0005 12.5 20.9 12.5H25.45C28.1562 12.5 30.35 14.6938 30.35 17.4M23 9.35V12.5M23 33.5V36.65M44 23C44 34.598 34.598 44 23 44C11.402 44 2 34.598 2 23C2 11.402 11.402 2 23 2C34.598 2 44 11.402 44 23Z" stroke="#0663D2" stroke-width="3" stroke-linecap="round" stroke-linejoin="round"/>
</svg>
