<svg width="42" height="42" viewBox="0 0 42 42" fill="none" xmlns="http://www.w3.org/2000/svg">
<path fill-rule="evenodd" clip-rule="evenodd" d="M19.2108 0.0653304C19.0177 0.0969401 18.6068 0.156577 18.2978 0.19774C17.3567 0.323055 16.9725 0.392175 16.7658 0.473517C16.6571 0.516226 16.4772 0.551207 16.3661 0.551207C16.255 0.551207 16.1464 0.579867 16.1248 0.614848C16.1032 0.6499 15.9275 0.700265 15.7344 0.726817C15.5413 0.753369 15.3833 0.803734 15.3833 0.838786C15.3833 0.873767 15.3333 0.902427 15.2722 0.902427C15.1565 0.902427 14.2392 1.20244 13.8734 1.35993C13.7575 1.40987 13.4493 1.5486 13.1885 1.66823C12.9276 1.78792 12.6853 1.88584 12.6501 1.88584C12.6148 1.88584 12.5754 1.90958 12.5624 1.93852C12.5496 1.96746 12.2546 2.13191 11.907 2.30393C11.5594 2.47596 11.2332 2.65768 11.1822 2.70783C11.1311 2.75799 11.0468 2.79901 10.9949 2.79901C10.9429 2.79901 10.8899 2.82275 10.877 2.85169C10.8641 2.88064 10.6165 3.06243 10.3269 3.2556C10.0372 3.44877 9.7896 3.63056 9.77675 3.6595C9.76383 3.68844 9.72064 3.71218 9.68068 3.71218C9.64072 3.71218 9.49324 3.80778 9.35292 3.92467C9.2126 4.04156 8.97396 4.23908 8.82248 4.36369C7.97623 5.05995 6.84238 6.18758 6.14979 7.02193C5.73045 7.52699 4.60483 9.12707 4.47539 9.40194C4.44815 9.45989 4.33122 9.66535 4.21562 9.85852C4.01498 10.1939 3.67767 10.8703 3.41002 11.4741C3.34155 11.6287 3.22645 11.8796 3.15425 12.0317C3.08213 12.1839 3.02306 12.3371 3.02306 12.3723C3.02306 12.4075 2.98086 12.5359 2.92931 12.6577C2.77754 13.0158 2.66005 13.3582 2.62438 13.5463C2.60612 13.6429 2.56433 13.7852 2.53153 13.8624C2.38567 14.2065 2.03846 15.6836 2.0393 15.9568C2.03958 16.0656 2.01205 16.2078 1.97813 16.2729C1.94421 16.338 1.86254 17.0708 1.79673 17.9014C1.68556 19.3039 1.685 19.507 1.78964 20.7463C1.85158 21.4804 1.93192 22.2232 1.96809 22.3971C2.00426 22.5709 2.08383 22.966 2.14485 23.2751C2.20588 23.5842 2.28433 23.9319 2.31916 24.0478C2.354 24.1637 2.40379 24.3774 2.42984 24.5227C2.4559 24.668 2.5052 24.8042 2.5394 24.8254C2.57367 24.8465 2.60169 24.9362 2.60169 25.0245C2.60169 25.1129 2.64537 25.277 2.69868 25.3892C2.75205 25.5013 2.81364 25.6917 2.83555 25.8121L2.87537 26.0311L2.43694 26.0663C1.86254 26.1124 1.26594 26.4045 0.812336 26.8618C0.447427 27.2296 0.143688 27.7478 0.143688 28.0026C0.143688 28.0829 0.112085 28.1683 0.0734592 28.1922C-0.0287236 28.2553 -0.0222625 39.5487 0.080131 39.8828C0.398197 40.9202 1.07794 41.6001 2.11508 41.9182C2.47086 42.0273 39.5324 42.0273 39.8882 41.9182C40.8854 41.6123 41.5586 40.979 41.852 40.0708C41.9975 39.6202 42 39.5175 42 33.9241C42 30.2075 41.9756 28.2206 41.9298 28.1922C41.8911 28.1683 41.8595 28.0829 41.8595 28.0026C41.8595 27.7478 41.5558 27.2296 41.1909 26.8618C40.7674 26.4349 40.156 26.1224 39.6398 26.0692C39.2314 26.027 39.2212 26.015 39.3401 25.7194C39.3835 25.6113 39.4443 25.4597 39.4751 25.3824C39.5289 25.248 39.6179 24.9407 39.855 24.0721C39.9146 23.8536 39.9634 23.6083 39.9634 23.5268C39.9634 23.4452 39.9938 23.3236 40.0309 23.2566C40.0976 23.1361 40.1935 22.543 40.3234 21.4488C40.4104 20.7152 40.4112 18.1118 40.3246 17.3044C40.2128 16.2615 40.1024 15.5556 40.0309 15.4263C39.9938 15.3593 39.9634 15.2229 39.9634 15.1234C39.9634 15.0239 39.9188 14.7943 39.8645 14.6132C39.8101 14.4321 39.7129 14.0942 39.6484 13.8624C39.584 13.6306 39.5064 13.3777 39.476 13.3005C39.4456 13.2232 39.3643 12.9861 39.2954 12.7736C39.2265 12.5612 39.1467 12.3557 39.1183 12.3171C39.0899 12.2784 39.0446 12.1441 39.0178 12.0185C38.991 11.8929 38.9399 11.7902 38.9044 11.7902C38.8688 11.7902 38.8397 11.7424 38.8397 11.6839C38.8397 11.6254 38.8106 11.5227 38.7751 11.4556C38.7396 11.3885 38.6465 11.2017 38.5683 11.0402C38.226 10.3345 37.8411 9.59743 37.7863 9.5425C37.7152 9.47134 37.5703 9.22281 37.5302 9.1034C37.5075 9.03576 37.4683 8.98047 37.4429 8.98047C37.4176 8.98047 37.3344 8.86345 37.2579 8.72036C37.1816 8.57727 37.049 8.3841 36.9633 8.29103C36.8777 8.19803 36.7886 8.06218 36.7655 7.98926C36.7423 7.91628 36.6939 7.85657 36.6579 7.85657C36.6219 7.85657 36.5924 7.81183 36.5924 7.75704C36.5924 7.70232 36.5658 7.64703 36.5333 7.63411C36.5009 7.62125 36.3658 7.46847 36.2332 7.29462C35.7214 6.62372 34.2327 5.08229 33.6166 4.58531C33.4283 4.43345 33.1913 4.23733 33.0899 4.14938C32.9884 4.06151 32.7316 3.87185 32.5191 3.72792C32.3067 3.58406 32.1171 3.44933 32.0978 3.42847C31.8311 3.14124 30.0162 2.12383 28.9023 1.63718C28.6706 1.53589 28.4178 1.42469 28.3405 1.38999C27.9521 1.21557 27.065 0.902427 26.9593 0.902427C26.893 0.902427 26.8205 0.872643 26.798 0.836257C26.7755 0.799871 26.6077 0.748382 26.4252 0.7219C26.2426 0.695488 26.0616 0.654255 26.023 0.630302C25.8574 0.527886 24.7225 0.298891 23.881 0.198232C23.5527 0.158965 23.1083 0.0958862 22.8936 0.0580247C22.4329 -0.023107 19.7172 -0.0177682 19.2108 0.0653304ZM19.7726 1.78645C19.5795 1.83758 19.3666 1.91246 19.2996 1.95285C19.2325 1.99324 19.1324 2.02633 19.0771 2.02633C19.0219 2.02633 18.9662 2.05007 18.9533 2.07901C18.9404 2.10795 18.7783 2.21072 18.5931 2.3073C17.8956 2.67096 16.8422 3.56874 16.35 4.21892C16.2444 4.3585 16.1165 4.51493 16.0658 4.56656C16.0151 4.61826 15.8663 4.81852 15.7352 5.01169C15.6041 5.20487 15.4713 5.37345 15.4401 5.3863C15.4089 5.39923 15.3833 5.45226 15.3833 5.50424C15.3833 5.55622 15.3439 5.64059 15.2955 5.6918C15.1847 5.80931 14.9067 6.28578 14.801 6.5395C14.7567 6.64571 14.6958 6.73267 14.6657 6.73267C14.6355 6.73267 14.6108 6.76491 14.6108 6.80432C14.6108 6.84373 14.4901 7.13615 14.3425 7.45407C13.9092 8.38748 13.8383 8.55803 13.8383 8.66676C13.8383 8.72338 13.8095 8.76974 13.7742 8.76974C13.739 8.76974 13.6888 8.89604 13.6628 9.05037C13.6367 9.20469 13.5865 9.34876 13.5513 9.37061C13.4365 9.44148 13.481 9.68263 13.61 9.68902C13.6776 9.6924 14.0174 9.72323 14.365 9.75758C14.7126 9.79193 15.5501 9.85087 16.2261 9.88859C16.902 9.92631 18.0656 9.99451 18.8117 10.0402C19.6595 10.0919 20.1931 10.0983 20.2344 10.057C20.327 9.96431 20.2872 1.7266 20.194 1.7077C20.1554 1.69991 19.9657 1.73531 19.7726 1.78645ZM21.9146 5.88974V10.1044L22.3535 10.1056C22.595 10.1062 23.2191 10.0737 23.7405 10.0332C24.262 9.99283 25.2575 9.92933 25.9527 9.89217C27.3598 9.81687 28.6522 9.71066 28.6962 9.66669C28.7296 9.63325 28.5034 8.97148 28.2968 8.49811C28.2187 8.31913 28.1137 8.07784 28.0634 7.96194C27.9245 7.64177 27.3283 6.43498 27.2318 6.27861C27.185 6.20268 27.0216 5.934 26.8689 5.68154C26.7161 5.42901 26.5736 5.20662 26.5522 5.1873C26.5308 5.16799 26.4304 5.02574 26.329 4.87121C25.973 4.32829 25.0181 3.30547 24.5246 2.93823C24.3957 2.84235 24.2535 2.73221 24.2085 2.69351C24.0377 2.54648 23.5539 2.25455 23.284 2.1357C23.1295 2.0677 22.9399 1.98355 22.8627 1.94885C22.7029 1.87699 22.047 1.67701 21.9673 1.67588C21.9383 1.67546 21.9146 3.57169 21.9146 5.88974ZM15.4535 2.51242C15.2797 2.57992 15.0485 2.67201 14.9398 2.71704C14.8311 2.76213 14.7121 2.79901 14.6755 2.79901C14.6389 2.79901 14.554 2.82908 14.4869 2.86588C14.4199 2.90262 14.2386 2.98537 14.0841 3.04978C13.5672 3.26515 12.6138 3.7433 12.1691 4.01009C11.927 4.15528 11.6979 4.27413 11.6599 4.27413C11.622 4.27413 11.591 4.30364 11.591 4.33967C11.591 4.37571 11.5221 4.42698 11.4381 4.45368C11.354 4.48037 11.2039 4.57766 11.1045 4.66996C11.0051 4.76219 10.8685 4.85519 10.8009 4.87669C10.7333 4.89818 10.678 4.94524 10.678 4.98128C10.678 5.01731 10.6333 5.04682 10.5785 5.04682C10.5238 5.04682 10.4685 5.07077 10.4556 5.09999C10.4427 5.12928 10.2901 5.26366 10.1164 5.39853C9.9427 5.53347 9.72169 5.70711 9.6252 5.78438C9.40103 5.96385 7.66883 7.69529 7.48139 7.92717C7.40351 8.02354 7.25252 8.21727 7.14577 8.35755L6.9518 8.61275L7.14696 8.65244C7.25434 8.67428 7.57915 8.74143 7.86885 8.8017C8.43854 8.9202 8.80675 8.98673 9.62456 9.11885C9.91426 9.16564 10.2619 9.22998 10.3971 9.2618C10.7535 9.34574 11.7559 9.46537 11.8121 9.4306C11.8385 9.4143 11.9286 9.18783 12.0123 8.9273C12.096 8.66676 12.2119 8.34301 12.2699 8.20779C12.3278 8.07257 12.4199 7.85812 12.4747 7.73126C12.5294 7.6044 12.5742 7.45422 12.5742 7.3976C12.5742 7.34098 12.6032 7.29462 12.6389 7.29462C12.6744 7.29462 12.7243 7.19979 12.7497 7.08389C12.7752 6.96799 12.8251 6.87316 12.8606 6.87316C12.8962 6.87316 12.9253 6.83368 12.9253 6.78535C12.9252 6.67444 13.3637 5.79246 13.4345 5.76099C13.4635 5.74806 13.4871 5.70549 13.4871 5.6663C13.4871 5.59247 14.2441 4.33623 14.3261 4.27413C14.3516 4.25482 14.4444 4.12051 14.5324 3.9756C14.6205 3.83075 14.7215 3.71218 14.757 3.71218C14.7925 3.71218 14.8215 3.66744 14.8215 3.61265C14.8215 3.55793 14.8463 3.50264 14.8768 3.48972C14.9072 3.47686 15.0414 3.32668 15.1752 3.15592C15.309 2.98523 15.5054 2.75497 15.6116 2.64426C15.7767 2.47217 15.8513 2.36132 15.7871 2.38366C15.7775 2.38703 15.6274 2.44498 15.4535 2.51242ZM26.4092 2.48629C26.4092 2.50743 26.4806 2.59439 26.5679 2.67946C26.6551 2.76452 26.8835 3.02379 27.0755 3.2556C27.2673 3.4874 27.4409 3.69287 27.4611 3.71218C27.4813 3.7315 27.5294 3.79921 27.568 3.86257C27.6066 3.92601 27.8151 4.2421 28.0313 4.56501C28.2475 4.888 28.5004 5.29436 28.5931 5.46807C28.686 5.64185 28.78 5.7999 28.8022 5.81929C28.8243 5.83875 28.9033 6.00466 28.9778 6.188C29.0521 6.37141 29.1342 6.52152 29.1602 6.52166C29.186 6.5218 29.2281 6.61677 29.2535 6.73267C29.2789 6.84857 29.3288 6.9434 29.3644 6.9434C29.4 6.9434 29.4291 6.99384 29.4291 7.05551C29.4291 7.11711 29.4737 7.25149 29.5281 7.35405C29.6636 7.60903 29.8154 7.97093 29.9452 8.34828C30.1014 8.80227 30.333 9.41641 30.3568 9.43952C30.4315 9.51201 34.4856 8.82545 34.8367 8.68088C34.8946 8.657 34.9988 8.62771 35.0683 8.61584C35.1821 8.59624 35.1767 8.5699 35.0131 8.34828C34.5003 7.65385 32.4917 5.60961 32.3209 5.60842C32.2947 5.60828 32.1723 5.51345 32.0489 5.39768C31.9255 5.28199 31.8055 5.1873 31.7825 5.1873C31.7594 5.1873 31.6552 5.10828 31.5512 5.01169C31.447 4.91511 31.3355 4.83608 31.3034 4.83608C31.2712 4.83608 31.2037 4.79661 31.1532 4.74828C30.9666 4.56965 30.3213 4.16048 30.1138 4.08925C30.0462 4.066 29.9909 4.01908 29.9909 3.98494C29.9909 3.95087 29.9457 3.92291 29.8905 3.92291C29.8354 3.92291 29.7485 3.88161 29.6974 3.83118C29.6464 3.78067 29.4546 3.67797 29.2713 3.60288C29.088 3.52779 28.9379 3.44511 28.9377 3.41919C28.9376 3.39334 28.8426 3.35127 28.7268 3.32584C28.6109 3.30041 28.5161 3.25047 28.5161 3.21493C28.5161 3.17931 28.4695 3.15023 28.4126 3.15023C28.3558 3.15023 28.1425 3.0743 27.9386 2.98144C27.5771 2.81685 26.5526 2.44779 26.4571 2.44779C26.4308 2.44779 26.4092 2.46507 26.4092 2.48629ZM5.76213 10.3851C5.64618 10.5659 5.5513 10.7505 5.5513 10.7954C5.5513 10.8403 5.52665 10.8771 5.49652 10.8771C5.46639 10.8771 5.38043 11.0351 5.3055 11.2283C5.23056 11.4214 5.14713 11.5795 5.12002 11.5795C5.09299 11.5795 5.05001 11.6743 5.02458 11.7902C4.99916 11.9061 4.94923 12.001 4.91369 12.001C4.87809 12.001 4.84901 12.0617 4.84901 12.1358C4.84901 12.2099 4.80357 12.36 4.74795 12.4694C4.60377 12.7532 4.45756 13.1159 4.35629 13.441C4.30811 13.5955 4.22889 13.8326 4.18015 13.9678C4.13148 14.103 4.0581 14.3401 4.01715 14.4946C3.97621 14.6492 3.89622 14.9494 3.8394 15.1619C3.6738 15.7815 3.47428 17.0648 3.39998 17.9893L3.35616 18.5336H6.83613H10.3162L10.3462 17.9893C10.4219 16.6224 10.5493 15.179 10.6106 14.9934C10.6477 14.8814 10.6782 14.6601 10.6784 14.5017C10.6786 14.3432 10.7096 14.1026 10.7473 13.9669C10.785 13.8312 10.8449 13.5309 10.8805 13.2996C11.0137 12.4336 11.1085 11.9622 11.1732 11.8439C11.2098 11.7768 11.2398 11.6445 11.2398 11.5499C11.2398 11.4553 11.2692 11.3007 11.3051 11.2063C11.3666 11.0445 11.3537 11.0322 11.0768 10.9916C10.7038 10.9368 9.56663 10.7546 9.06273 10.6689C8.54536 10.5808 7.73948 10.4218 7.09633 10.2809C5.90722 10.0204 6.00083 10.0131 5.76213 10.3851ZM35.5866 10.1503C35.5355 10.2015 34.8162 10.3589 34.1695 10.4604C33.9377 10.4968 33.7007 10.5455 33.6428 10.5686C33.5848 10.5917 33.3636 10.6379 33.1512 10.6712C32.9387 10.7046 32.4489 10.7816 32.0626 10.8424C31.6764 10.9031 31.2266 10.9715 31.0633 10.9942C30.8852 11.019 30.7841 11.0645 30.811 11.1079C30.8539 11.1773 30.9058 11.3953 31.1574 12.5629C31.4245 13.8019 31.5823 15.0244 31.7267 16.9707L31.8426 18.5336H35.3491H38.8557L38.8148 18.3053C38.7923 18.1798 38.7392 17.6977 38.6968 17.2341C38.6544 16.7705 38.5902 16.3363 38.5542 16.2693C38.5181 16.2022 38.4886 16.0777 38.4886 15.9927C38.4886 15.706 38.1952 14.5717 37.9103 13.7571C37.836 13.5446 37.7593 13.3075 37.7398 13.2302C37.7203 13.153 37.6775 13.0265 37.6447 12.9493C37.6119 12.872 37.5381 12.6981 37.4807 12.5629C37.4233 12.4277 37.2789 12.1015 37.1599 11.838C37.0409 11.5745 36.9435 11.3296 36.9435 11.2936C36.9435 11.2577 36.9189 11.2283 36.8887 11.2283C36.8586 11.2283 36.7977 11.1413 36.7534 11.0351C36.6498 10.7867 36.3705 10.306 36.2638 10.1925C36.178 10.1012 35.6675 10.0695 35.5866 10.1503ZM12.8365 11.7323C12.7684 12.0153 12.7131 12.3161 12.7136 12.4007C12.7142 12.4854 12.6863 12.5722 12.6516 12.5936C12.6169 12.615 12.5662 12.8541 12.5391 13.1249C12.5119 13.3956 12.4612 13.6347 12.4266 13.6561C12.3919 13.6775 12.3635 13.8278 12.3635 13.99C12.3635 14.1521 12.332 14.3945 12.2935 14.5287C12.2551 14.6628 12.2059 15.0261 12.1843 15.336C12.1626 15.6459 12.1168 16.0259 12.0826 16.1805C12.0482 16.335 12.0016 16.9277 11.9788 17.4975L11.9374 18.5336H16.119H20.3007L20.2825 15.1093L20.2642 11.6849L18.5085 11.6358C17.5429 11.6089 16.4051 11.5532 15.9803 11.5121C15.5554 11.4709 14.8285 11.4041 14.365 11.3636C13.9015 11.3232 13.3958 11.2738 13.2413 11.2538L12.9604 11.2177L12.8365 11.7323ZM28.5161 11.304C28.1661 11.3911 26.5003 11.4989 24.039 11.5936L21.9146 11.6754V15.1045V18.5336H26.0651H30.2157L30.1788 17.638C30.1303 16.4604 29.8366 13.8349 29.735 13.6704C29.714 13.6364 29.6697 13.4445 29.6365 13.2439C29.5699 12.8406 29.4114 12.0766 29.2873 11.5619C29.2118 11.2484 29.1936 11.2287 28.9844 11.2355C28.862 11.2395 28.6513 11.2704 28.5161 11.304ZM3.37421 20.6049C3.37421 20.8554 3.40448 21.1952 3.44149 21.36C3.4785 21.5247 3.54416 21.8966 3.58749 22.1863C3.721 23.0803 3.89552 23.9262 4.00051 24.1883C4.03148 24.2655 4.1128 24.5184 4.18128 24.7502C4.24968 24.982 4.34891 25.2713 4.4018 25.393C4.45461 25.5148 4.49885 25.657 4.50011 25.7091C4.50131 25.7612 4.54429 25.8592 4.59563 25.9268C4.68201 26.0407 4.9205 26.0497 7.82257 26.0497H10.9562L10.9152 25.7161C10.8925 25.5325 10.8299 25.1829 10.776 24.939C10.7221 24.6952 10.678 24.3759 10.678 24.2295C10.678 24.0831 10.6477 23.8718 10.6106 23.7597C10.5473 23.5683 10.4125 22.0235 10.3462 20.7288L10.3165 20.1493H6.8454H3.37421V20.6049ZM11.9766 20.2365C11.9387 20.3418 12.0514 22.2401 12.1486 23.1346C12.2217 23.8078 12.3286 24.4923 12.4363 24.9762C12.4725 25.1392 12.5227 25.4473 12.5478 25.6611L12.5935 26.0497H16.4472H20.3009L20.2825 23.1171L20.2642 20.1844L16.1363 20.1663C12.8705 20.1519 12.0017 20.1666 11.9766 20.2365ZM21.9146 23.0995V26.0497H25.6951H29.4756L29.5522 25.8917C29.5945 25.8047 29.6463 25.6072 29.6675 25.4527C29.6886 25.2981 29.7544 24.8872 29.8137 24.5395C29.873 24.1918 29.9536 23.5754 29.9929 23.1697C30.0323 22.7641 30.0953 22.2389 30.133 22.0026C30.1707 21.7663 30.2016 21.2527 30.2016 20.8612V20.1493H26.0581H21.9146V23.0995ZM31.8562 20.2371C31.8416 20.2854 31.7931 20.9413 31.7484 21.6946C31.7037 22.448 31.6385 23.2066 31.6034 23.3805C31.5684 23.5543 31.5086 23.9494 31.4706 24.2585C31.3795 24.9987 31.2825 25.6177 31.22 25.8566L31.1695 26.0497H34.3357H37.5018L37.6089 25.8425C37.6678 25.7285 37.716 25.5724 37.716 25.4954C37.716 25.4185 37.7452 25.3375 37.7809 25.3155C37.8165 25.2935 37.868 25.1741 37.8951 25.0502C37.9223 24.9264 37.9682 24.7766 37.9972 24.7174C38.0784 24.5509 38.2545 23.8952 38.3843 23.2751C38.4491 22.966 38.5301 22.6025 38.5645 22.4673C38.5988 22.3321 38.663 21.8737 38.7072 21.4488C38.7513 21.0238 38.8025 20.5576 38.821 20.4127L38.8545 20.1493H35.3686C32.6408 20.1493 31.8769 20.1684 31.8562 20.2371ZM2.40323 27.6965C2.07526 27.8155 1.77503 28.1207 1.68668 28.425C1.63535 28.6019 1.61821 30.4211 1.63261 34.1684L1.65361 39.6529L1.8428 39.901C2.24261 40.4252 0.412523 40.3795 21.0016 40.3795C41.5907 40.3795 39.7606 40.4252 40.1604 39.901L40.3496 39.6529L40.3706 34.1684C40.385 30.4211 40.3679 28.6019 40.3165 28.425C40.2243 28.1073 39.928 27.8172 39.5675 27.6917C39.1888 27.5598 2.76715 27.5646 2.40323 27.6965ZM9.68967 30.3116C9.43424 30.419 9.20319 30.632 9.20319 30.7601C9.20319 30.8041 9.16063 30.9398 9.10859 31.0616C9.02102 31.2665 8.95051 31.4643 8.55407 32.6175C8.47443 32.8493 8.36663 33.1386 8.31459 33.2603C8.26255 33.3821 8.21999 33.5259 8.21999 33.58C8.21999 33.634 8.19372 33.7083 8.16163 33.745C8.12947 33.7817 8.065 33.9461 8.01829 34.1102C7.97166 34.2744 7.91098 34.4085 7.88359 34.4082C7.82467 34.4076 7.65816 34.0663 7.65816 33.9462C7.65816 33.9003 7.61097 33.7724 7.55324 33.6616C7.49558 33.551 7.44818 33.407 7.44789 33.3417C7.44768 33.2764 7.41952 33.2056 7.38532 33.1845C7.35119 33.1634 7.30631 33.0587 7.28574 32.952C7.26509 32.8453 7.15546 32.5052 7.04218 32.1961C6.81331 31.5717 6.81134 31.5663 6.63612 31.0722C6.46856 30.5994 6.3321 30.4239 6.06025 30.3312C5.59976 30.1743 5.11153 30.4435 5.02557 30.9018C4.98357 31.1256 5.11293 31.6584 5.3397 32.1961C5.37229 32.2733 5.45551 32.5104 5.52468 32.7229C5.59393 32.9354 5.67195 33.1409 5.69815 33.1795C5.72434 33.2181 5.76887 33.3604 5.7971 33.4956C5.82533 33.6308 5.86979 33.7731 5.89584 33.8117C5.9219 33.8503 6.00301 34.0716 6.07612 34.3034C6.14923 34.5352 6.23203 34.7565 6.26012 34.7951C6.28828 34.8337 6.33344 34.9842 6.36061 35.1295C6.38772 35.2749 6.43801 35.4111 6.47221 35.4322C6.50648 35.4534 6.53471 35.5242 6.53492 35.5895C6.5352 35.6548 6.58261 35.7988 6.64026 35.9095C6.69799 36.0202 6.74519 36.1509 6.74519 36.2C6.74519 36.2491 6.79238 36.3798 6.85011 36.4905C6.90777 36.6011 6.95517 36.7451 6.95545 36.8105C6.95566 36.8758 6.98748 36.9488 7.0261 36.9727C7.06473 36.9965 7.09633 37.0769 7.09633 37.1513C7.09633 37.2257 7.18475 37.3855 7.29283 37.5065C7.46587 37.7002 7.53343 37.7265 7.85901 37.7265C8.3063 37.7265 8.49859 37.5767 8.67549 37.0905C8.7413 36.9098 8.83948 36.6623 8.89376 36.5406C8.94805 36.4189 8.99251 36.2548 8.99251 36.176C8.99251 36.0971 9.02411 36.0131 9.06273 35.9892C9.10136 35.9654 9.13296 35.8972 9.13296 35.8377C9.13296 35.7782 9.17517 35.6299 9.22672 35.5081C9.34534 35.2282 9.48544 34.8368 9.53221 34.6546C9.55209 34.5773 9.61256 34.4145 9.66663 34.2928C9.72078 34.1711 9.76502 34.0228 9.76502 33.9633C9.76502 33.9038 9.79662 33.8356 9.83525 33.8117C9.87388 33.7878 9.90569 33.699 9.9059 33.6144C9.90632 33.4673 9.91032 33.4682 9.99579 33.6361C10.045 33.7327 10.1461 34.0013 10.2205 34.2332C10.2948 34.465 10.3808 34.6847 10.4115 34.7213C10.4422 34.758 10.4675 34.837 10.4677 34.897C10.468 34.9569 10.5154 35.0964 10.5731 35.207C10.6308 35.3177 10.678 35.4425 10.678 35.4845C10.678 35.5721 11.0794 36.701 11.1757 36.8839C11.211 36.951 11.24 37.0616 11.2402 37.1297C11.2412 37.5015 11.7941 37.8097 12.2726 37.7053C12.5613 37.6423 12.6829 37.517 12.8228 37.1382C12.885 36.9699 12.9611 36.7837 12.9919 36.7245C13.0227 36.6653 13.0717 36.5083 13.1009 36.3756C13.13 36.2429 13.1776 36.0859 13.2066 36.0267C13.3536 35.7265 13.4871 35.3769 13.4871 35.2924C13.4871 35.2402 13.5343 35.107 13.5921 34.9963C13.6497 34.8856 13.6971 34.7239 13.6974 34.6371C13.6976 34.5502 13.7259 34.479 13.7601 34.479C13.7943 34.479 13.8392 34.3921 13.8597 34.2858C13.8904 34.1272 14.0476 33.6696 14.3484 32.8634C14.3701 32.8054 14.488 32.4577 14.6104 32.0907C14.7329 31.7237 14.8681 31.351 14.911 31.2624C15.0443 30.9866 14.8354 30.5439 14.4776 30.3444C14.1901 30.184 14.1705 30.1823 13.885 30.2913C13.6857 30.3675 13.5504 30.4784 13.4688 30.6328C13.347 30.8634 13.0149 31.7252 12.9476 31.9853C12.9277 32.0626 12.8671 32.2254 12.813 32.3472C12.7589 32.4689 12.7146 32.6172 12.7146 32.6767C12.7146 32.7362 12.683 32.8044 12.6444 32.8283C12.6058 32.8522 12.5742 32.932 12.5742 33.0056C12.5742 33.0793 12.5282 33.2434 12.4719 33.3703C12.4157 33.4971 12.2998 33.8014 12.2144 34.0463L12.0591 34.4916L11.9399 34.2466C11.8743 34.1118 11.8028 33.9272 11.7809 33.8363C11.7179 33.5755 11.3334 32.512 11.2842 32.4629C11.2598 32.4385 11.2398 32.3511 11.2398 32.2686C11.2398 32.1862 11.2132 32.0888 11.1808 32.0521C11.1482 32.0154 11.051 31.7641 10.9646 31.4936C10.7367 30.7805 10.6282 30.5691 10.4131 30.4192C10.136 30.2262 9.9564 30.1995 9.68967 30.3116ZM20.8187 30.2951C20.5833 30.397 20.347 30.6857 20.269 30.9668C20.2153 31.1603 20.1649 31.2922 19.9931 31.6892C19.9297 31.8354 19.878 31.9977 19.878 32.05C19.878 32.1022 19.8308 32.2354 19.773 32.3461C19.7154 32.4568 19.668 32.6185 19.6677 32.7053C19.6675 32.7922 19.6392 32.8634 19.605 32.8634C19.5708 32.8634 19.5259 32.9503 19.5054 33.0566C19.4848 33.1628 19.3715 33.5184 19.2536 33.8468C19.1356 34.1752 19.037 34.4597 19.0344 34.479C19.0254 34.5446 18.7735 34.0023 18.7358 33.8363C18.6932 33.6488 18.5649 33.2842 18.4267 32.9582C18.3751 32.8364 18.3329 32.6881 18.3329 32.6286C18.3329 32.5691 18.3013 32.5009 18.2627 32.4771C18.2241 32.4532 18.1925 32.3692 18.1925 32.2903C18.1925 32.2115 18.148 32.0474 18.0937 31.9257C18.0394 31.804 17.9408 31.5463 17.8745 31.3532C17.6579 30.7219 17.553 30.5389 17.3268 30.3969C17.0265 30.2085 16.6298 30.258 16.3587 30.5177C16.1855 30.6837 16.1558 30.766 16.1558 31.0812C16.1558 31.2842 16.1838 31.4675 16.218 31.4887C16.2521 31.5097 16.297 31.6144 16.3176 31.7211C16.3484 31.8805 16.5053 32.3373 16.8064 33.1444C16.8281 33.2023 16.9454 33.55 17.0672 33.9171C17.1889 34.2841 17.3141 34.6328 17.3453 34.6921C17.3766 34.7513 17.4244 34.901 17.4516 35.0249C17.4787 35.1487 17.5301 35.2681 17.5658 35.2902C17.6015 35.3122 17.6306 35.3837 17.6306 35.4492C17.6306 35.5146 17.757 35.8999 17.9116 36.3053C18.0661 36.7108 18.1925 37.0955 18.1925 37.1603C18.1925 37.3355 18.5875 37.6977 18.8078 37.7244C19.0786 37.7573 19.4314 37.6752 19.5564 37.5501C19.6147 37.4918 19.7139 37.3064 19.7768 37.1382C19.8396 36.9699 19.9164 36.769 19.9474 36.6917C20.1532 36.1792 20.4398 35.3312 20.4398 35.2348C20.4398 35.1713 20.4689 35.1014 20.5046 35.0794C20.5403 35.0574 20.5917 34.938 20.6189 34.8141C20.646 34.6903 20.6917 34.5405 20.7202 34.4813C20.7956 34.325 20.9398 33.9071 20.9818 33.7239C21.0333 33.4992 21.1245 33.5283 21.202 33.7941C21.2385 33.9197 21.3698 34.2911 21.4936 34.6195C21.6174 34.9479 21.7348 35.3039 21.7545 35.4106C21.7742 35.5173 21.8183 35.6219 21.8524 35.643C21.8866 35.6642 21.9146 35.7301 21.9146 35.7896C21.9146 35.8491 21.9588 35.9974 22.013 36.1191C22.0671 36.2409 22.1276 36.4037 22.1475 36.481C22.2493 36.8764 22.4947 37.4093 22.6438 37.5584C22.779 37.6936 22.885 37.7265 23.1864 37.7265C23.5257 37.7265 23.5797 37.7041 23.7589 37.49C23.8676 37.36 23.9737 37.1746 23.9946 37.078C24.0153 36.9814 24.0578 36.8392 24.0887 36.7619C24.1959 36.4948 24.3548 36.0578 24.4976 35.638C24.8308 34.6581 24.9613 34.2909 25.0505 34.0821C25.1026 33.9603 25.1451 33.812 25.1451 33.7525C25.1451 33.693 25.1731 33.627 25.2074 33.6059C25.2416 33.5847 25.2919 33.4485 25.319 33.3032C25.3462 33.1579 25.3906 33.0074 25.4178 32.9688C25.445 32.9301 25.5239 32.7247 25.5931 32.5122C25.6623 32.2997 25.7444 32.0626 25.7757 31.9853C25.9501 31.5541 26.0581 31.1863 26.0581 31.0229C26.0581 30.7141 25.8402 30.4212 25.5191 30.2986C25.24 30.1919 25.2108 30.1936 24.9407 30.3314C24.7345 30.4367 24.6174 30.5621 24.5145 30.788C24.4364 30.9594 24.3726 31.1435 24.3726 31.1971C24.3726 31.2507 24.3526 31.3146 24.3282 31.339C24.2857 31.3815 23.9153 32.3948 23.8352 32.6878C23.8141 32.7651 23.7525 32.9279 23.6985 33.0496C23.6443 33.1713 23.6001 33.3196 23.6001 33.3791C23.6001 33.4386 23.5685 33.5068 23.5298 33.5307C23.4912 33.5546 23.4596 33.6319 23.4596 33.7025C23.4596 33.773 23.4124 33.9213 23.3547 34.032C23.297 34.1426 23.2496 34.2924 23.2494 34.3646C23.249 34.4736 23.2308 34.4812 23.1436 34.4088C23.0857 34.3606 23.0382 34.248 23.0382 34.1585C23.0382 34.0689 23.0066 33.9761 22.968 33.9522C22.9294 33.9283 22.8978 33.8601 22.8978 33.8006C22.8978 33.7411 22.8552 33.5928 22.8031 33.4711C22.751 33.3493 22.6516 33.0759 22.582 32.8634C22.5125 32.6509 22.4323 32.4454 22.4039 32.4068C22.3754 32.3682 22.3291 32.2259 22.3008 32.0907C22.2726 31.9555 22.2281 31.8132 22.2019 31.7746C22.1757 31.736 22.0971 31.5305 22.0273 31.318C21.8178 30.6804 21.7071 30.4802 21.5075 30.3788C21.1843 30.2144 21.0446 30.1974 20.8187 30.2951ZM32.0626 30.2458C31.7985 30.3116 31.571 30.5333 31.4555 30.8379C31.2659 31.3375 31.2429 31.3997 31.0303 31.9853C30.918 32.2944 30.809 32.6105 30.7878 32.6878C30.7667 32.7651 30.7052 32.9279 30.6511 33.0496C30.597 33.1713 30.5527 33.3196 30.5527 33.3791C30.5527 33.4386 30.5248 33.5046 30.4906 33.5257C30.4564 33.5468 30.412 33.6515 30.3919 33.7582C30.3717 33.8649 30.3107 34.0702 30.2563 34.2145C30.1799 34.4166 30.1382 34.4577 30.074 34.3936C30.0283 34.3479 29.9909 34.2396 29.9909 34.153C29.9909 34.0664 29.9593 33.9761 29.9207 33.9522C29.882 33.9283 29.8502 33.8553 29.85 33.79C29.8497 33.7247 29.8023 33.5807 29.7447 33.47C29.6869 33.3593 29.6397 33.2345 29.6397 33.1926C29.6397 33.1269 29.3161 32.1947 29.1474 31.7746C28.9592 31.306 28.8672 31.0172 28.8672 30.8952C28.8672 30.8187 28.8377 30.7561 28.8017 30.7561C28.7657 30.7561 28.7183 30.6997 28.6965 30.6308C28.6428 30.4615 28.294 30.2643 28.0488 30.2647C27.8024 30.2649 27.3924 30.5054 27.3924 30.6497C27.3924 30.7082 27.3608 30.7561 27.3222 30.7561C27.1952 30.7561 27.2525 31.2028 27.4554 31.7946C27.565 32.1147 27.6747 32.3965 27.6992 32.4209C27.7236 32.4454 27.7436 32.5106 27.7436 32.566C27.7436 32.6213 27.7862 32.7662 27.8382 32.8879C27.8903 33.0096 27.988 33.2831 28.0553 33.4956C28.1226 33.7081 28.1953 33.9293 28.2168 33.9873C28.5341 34.8415 28.6745 35.2502 28.7054 35.4097C28.7259 35.516 28.7707 35.6029 28.8049 35.6029C28.8392 35.6029 28.8674 35.6741 28.8677 35.761C28.8679 35.8478 28.9153 36.0095 28.973 36.1202C29.0307 36.2309 29.0779 36.3641 29.0779 36.4163C29.0779 36.4686 29.1227 36.6151 29.1774 36.742C29.2321 36.8688 29.3255 37.085 29.3848 37.2222C29.5541 37.6137 29.7225 37.7265 30.138 37.7265C30.4486 37.7265 30.5298 37.6967 30.6913 37.5239C30.7954 37.4125 30.9468 37.1165 31.0277 36.866C31.1765 36.4057 31.3028 36.0353 31.3987 35.7785C31.7045 34.9593 31.8871 34.4183 31.8871 34.3315C31.8871 34.2735 31.9162 34.1961 31.9518 34.1594C31.9874 34.1227 32.0427 33.9898 32.0747 33.864C32.1436 33.5932 32.2641 33.536 32.2958 33.759C32.3081 33.8459 32.3476 33.9171 32.3836 33.9171C32.4195 33.9171 32.4491 33.9882 32.4493 34.0751C32.4496 34.162 32.497 34.3237 32.5547 34.4343C32.6124 34.545 32.6596 34.6933 32.6596 34.7638C32.6596 34.8344 32.6912 34.9117 32.7298 34.9356C32.7684 34.9595 32.8 35.0277 32.8 35.0872C32.8 35.1467 32.8442 35.295 32.8983 35.4167C32.9523 35.5384 33.0519 35.8119 33.1197 36.0244C33.1874 36.2369 33.2853 36.5103 33.3374 36.6321C33.3895 36.7538 33.4321 36.8833 33.4321 36.9198C33.4321 37.0201 33.6564 37.4512 33.7663 37.562C34.0138 37.8117 34.6968 37.768 34.8962 37.4897C35.0094 37.3318 35.2593 36.6999 35.5453 35.8488C35.6232 35.617 35.7168 35.3724 35.7534 35.3054C35.79 35.2383 35.8199 35.126 35.8199 35.056C35.8199 34.9859 35.8465 34.8985 35.8789 34.8618C35.9115 34.8252 36.0082 34.5738 36.094 34.3034C36.1797 34.033 36.2771 33.7485 36.3104 33.6712C36.3436 33.5939 36.4245 33.3727 36.4901 33.1795C36.5558 32.9863 36.6531 32.7287 36.7063 32.6069C36.7595 32.4852 36.8031 32.3192 36.8031 32.2382C36.8031 32.157 36.8347 32.0907 36.8733 32.0907C36.9119 32.0907 36.9435 32.0311 36.9435 31.9582C36.9435 31.8854 36.9907 31.7353 37.0485 31.6246C37.1061 31.5139 37.1535 31.2623 37.1538 31.0654C37.1543 30.6493 37.0277 30.4623 36.6346 30.2979C36.3983 30.1992 36.3543 30.2004 36.1157 30.3123C35.7448 30.4863 35.7297 30.5085 35.477 31.2478C35.3516 31.6148 35.2234 31.9636 35.1922 32.0228C35.161 32.082 35.1132 32.2318 35.086 32.3556C35.0588 32.4794 35.0074 32.5989 34.9717 32.6209C34.936 32.6429 34.9069 32.7318 34.9069 32.8184C34.9069 32.905 34.8798 33.0058 34.8467 33.0425C34.8136 33.0793 34.7115 33.3463 34.6199 33.6361C34.5283 33.9258 34.4173 34.2348 34.3733 34.3226L34.2932 34.4824L34.2194 34.2875C33.863 33.3481 33.5726 32.5269 33.5726 32.4589C33.5726 32.3814 33.4205 31.9948 33.2831 31.7229C33.2491 31.6558 33.2214 31.5541 33.2214 31.4969C33.2214 31.3952 33.1015 31.0855 32.8885 30.6369C32.7937 30.4371 32.6922 30.3685 32.3084 30.2448C32.2505 30.2261 32.1399 30.2266 32.0626 30.2458Z" fill="white"/>
</svg>
