<svg width="35" height="42" viewBox="0 0 35 42" fill="none" xmlns="http://www.w3.org/2000/svg">
<path fill-rule="evenodd" clip-rule="evenodd" d="M13.2084 0.0775777C12.972 0.141624 12.6747 0.294684 12.4807 0.45207C12.0916 0.767835 11.6798 1.49916 11.6792 1.8755C11.6785 2.28715 11.544 2.61448 11.2974 2.80428C11.0857 2.96727 10.9903 2.98457 10.118 3.01876C9.24064 3.05309 9.14568 3.07054 8.8594 3.25034C8.50872 3.47063 8.16212 3.90087 8.03651 4.27182C7.83953 4.85363 8.11467 5.73192 8.61642 6.12286C9.18279 6.56417 9.17369 6.56339 13.7897 6.56339C18.4739 6.56339 18.4988 6.56112 19.0343 6.0896C19.9961 5.24266 19.7743 3.7464 18.6004 3.16274C18.3563 3.04132 18.1707 3.01699 17.4859 3.01677C16.7995 3.01656 16.626 2.99372 16.4314 2.87804C16.1471 2.7091 16.0077 2.4556 15.9423 1.98862C15.8502 1.33106 15.6865 0.971465 15.3146 0.60896C14.7702 0.078287 13.96 -0.126123 13.2084 0.0775777ZM14.1094 1.20063C14.6625 1.42582 14.8918 1.92699 14.6677 2.42078C14.4897 2.81293 14.2196 2.9816 13.7697 2.9816C13.4458 2.9816 13.3906 2.95542 13.1212 2.67384C12.8428 2.38305 12.8286 2.34687 12.8612 2.0155C12.8995 1.62661 13.096 1.36092 13.4625 1.20219C13.7421 1.08105 13.8153 1.08083 14.1094 1.20063ZM1.57002 4.23125C1.11389 4.32211 0.578159 4.81462 0.228862 5.46403L0 5.88958V20.9969V36.1043L0.19335 36.4614C0.564696 37.1469 1.16134 37.5925 1.94362 37.7683C2.33927 37.8573 17.8651 37.8684 17.8651 37.7797C17.8651 37.7455 17.8115 37.5939 17.746 37.4428C17.5872 37.0764 17.2974 35.8582 17.2379 35.3064L17.1901 34.8631H10.105H3.01996V22.8056V10.7481H13.8263H24.6327V17.8129V24.8778L24.7964 24.8388C25.3189 24.7141 26.6759 24.5709 27.1446 24.5909L27.6914 24.6142L27.6721 15.3228C27.6527 6.0452 27.6524 6.03094 27.4994 5.70865C27.1756 5.02641 26.57 4.57454 25.6515 4.32977C25.2508 4.22295 24.8511 4.20288 23.0373 4.19827L20.896 4.19288L20.9138 4.66929C20.9643 6.02853 20.151 7.16258 18.7644 7.66623C18.4398 7.78411 18.0557 7.79595 14.081 7.8112C11.6539 7.82049 9.5593 7.79864 9.31458 7.76141C7.75555 7.5243 6.53985 6.06109 6.67695 4.58681L6.71414 4.18735H4.25218C2.89807 4.18735 1.6911 4.20706 1.57002 4.23125ZM5.23945 13.8798C4.96911 14.0239 4.91198 14.1673 4.91198 14.7013C4.91198 15.1605 4.93331 15.2437 5.09063 15.3969L5.26921 15.5711H13.4989H21.7285L21.9071 15.3969C22.0626 15.2454 22.0857 15.1588 22.0857 14.729C22.0857 14.4573 22.0654 14.1834 22.0405 14.1203C21.9108 13.7907 22.1003 13.7978 13.4843 13.8C7.76232 13.8016 5.34227 13.825 5.23945 13.8798ZM5.05752 19.4011C4.93767 19.5179 4.91198 19.6375 4.91198 20.0781C4.91198 20.5517 4.93251 20.6333 5.09063 20.7874L5.26921 20.9615H13.4858C23.0907 20.9615 22.0857 21.0616 22.0857 20.1052C22.0857 19.1557 23.1365 19.2592 13.4989 19.2592C5.30007 19.2592 5.20139 19.2609 5.05752 19.4011ZM5.23945 24.0932C4.96911 24.2374 4.91198 24.3807 4.91198 24.9147C4.91198 25.374 4.93331 25.4571 5.09063 25.6104L5.26921 25.7845H11.9568H18.6443L18.8368 25.6106C19.0119 25.4524 19.0294 25.3886 19.0294 24.9076C19.0294 24.4039 19.0187 24.3698 18.8055 24.195L18.5816 24.0113L11.9833 24.0135C7.34789 24.015 5.34169 24.0387 5.23945 24.0932ZM26.0881 26.4879C25.623 26.5535 24.438 26.8375 24.2728 26.9231C24.2105 26.9552 23.9017 27.0984 23.5863 27.2412C21.3342 28.261 19.6139 30.4902 19.2093 32.9126C18.8007 35.3599 19.5288 37.7369 21.2315 39.5139C21.9513 40.2651 22.4743 40.6557 23.3897 41.1255C25.2375 42.0738 27.6354 42.2673 29.5811 41.6253C30.2372 41.4088 31.3719 40.8369 31.8733 40.47C33.23 39.4772 34.3146 37.9102 34.7969 36.2462C34.9895 35.5816 35.0023 35.4542 34.9997 34.2248C34.9973 33.0155 34.9813 32.8575 34.7969 32.2102C34.5868 31.4726 34.1276 30.4982 33.6763 29.8323C33.3229 29.311 32.1313 28.1529 31.5822 27.7972C30.8326 27.3115 29.8148 26.8755 28.9625 26.6748C28.0934 26.4703 26.8066 26.3866 26.0881 26.4879ZM5.09063 29.6468C4.93702 29.7965 4.91198 29.8865 4.91198 30.2897C4.91198 30.7427 4.9921 31.0118 5.1594 31.1207C5.20343 31.1493 7.99598 31.1732 11.365 31.1738L17.4907 31.1749L17.6414 30.988C17.761 30.8399 17.7923 30.6995 17.7923 30.311C17.7923 29.8852 17.7689 29.798 17.6136 29.6468L17.4351 29.4727H11.3521H5.26921L5.09063 29.6468ZM31.9793 30.7477C32.3131 30.9138 32.52 31.1755 32.6289 31.5695C32.7482 32.0014 32.5868 32.4093 32.1008 32.9039C32.0157 32.9905 31.8478 33.1721 31.7278 33.3075C31.2222 33.8776 30.4202 34.7619 30.3491 34.8276C30.3069 34.8666 30.0595 35.1379 29.7994 35.4305C29.5392 35.7231 29.2887 35.9944 29.2428 36.0334C29.1969 36.0724 28.7759 36.5352 28.3074 37.0618C27.3671 38.1188 27.0579 38.3853 26.6952 38.4516C26.252 38.5327 25.9682 38.4233 25.3354 37.9274C25.0017 37.6659 24.62 37.3721 24.4872 37.2746C24.0695 36.9677 22.8627 36.007 22.548 35.7308C21.6081 34.906 22.3311 33.4473 23.5902 33.6282C23.8213 33.6614 24.0494 33.793 24.5448 34.1788C24.9028 34.4576 25.3065 34.7707 25.4418 34.8745C25.5771 34.9783 25.8151 35.1618 25.9708 35.2823C26.1264 35.4028 26.278 35.5014 26.3077 35.5014C26.3374 35.5014 26.657 35.1742 27.0179 34.7744C27.3788 34.3746 27.7348 33.9836 27.8091 33.9056C27.8834 33.8276 28.1569 33.526 28.417 33.2353C28.677 32.9447 28.9588 32.6415 29.0432 32.5615C29.1276 32.4816 29.5019 32.0709 29.875 31.6488C30.248 31.2268 30.6701 30.8213 30.8131 30.7476C31.153 30.5725 31.6268 30.5725 31.9793 30.7477Z" fill="#0663D2"/>
</svg>
