<svg width="32" height="32" viewBox="0 0 32 32" fill="none" xmlns="http://www.w3.org/2000/svg">
<path d="M16 1H14.6472V8.13291H17.3519V3.77958C23.5497 4.45438 28.2934 9.67436 28.2934 16.0001C28.2934 22.7798 22.7781 28.2951 16 28.2951C9.22163 28.2951 3.70657 22.7798 3.70657 16.0001C3.70657 13.2253 4.60821 10.607 6.31305 8.42903L6.78974 7.82177L4.65874 6.15409L4.18309 6.76144C2.1007 9.42026 1 12.6152 1 16C1 24.2706 7.72862 31 16 31C24.2706 31 31 24.2716 31 16C31 7.72862 24.2706 1 16 1Z" fill="#026DEB"/>
<path d="M13.8439 18.2982C14.3339 18.8858 15.0225 19.2466 15.781 19.3143C15.8686 19.3226 15.9561 19.3268 16.0422 19.3268C17.5056 19.3268 18.7563 18.1831 18.8876 16.725C18.9564 15.9655 18.7249 15.2234 18.2355 14.6351C17.7454 14.0469 17.0573 13.6856 16.2968 13.6163C16.0468 13.5944 15.7932 13.6077 15.5237 13.6607L7.26196 6.65918L13.3309 15.578C13.2546 15.8001 13.2081 16.0073 13.1898 16.2091C13.1212 16.9684 13.3534 17.7107 13.8439 18.2982Z" fill="#026DEB"/>
</svg>
