<svg width="32" height="32" viewBox="0 0 32 32" fill="none" xmlns="http://www.w3.org/2000/svg">
<path d="M2.73577 9.21821H29.262C29.2759 9.21825 29.2894 9.213 29.2996 9.20352C29.3097 9.19404 29.316 9.18104 29.3169 9.16715V3.05107C29.316 3.03718 29.3097 3.02419 29.2996 3.01471C29.2894 3.00522 29.2759 2.99997 29.262 3H2.73577C2.72121 3 2.70722 3.00579 2.69693 3.01609C2.68663 3.02639 2.68084 3.04035 2.68084 3.05492V9.16935C2.68233 9.18284 2.68876 9.19531 2.6989 9.20434C2.70904 9.21336 2.7222 9.2183 2.73577 9.21821ZM26.1376 5.16792H27.6553V6.68679H26.1376V5.16792ZM16.9766 5.16792H23.3964V6.68679H16.9777L16.9766 5.16792ZM4.34083 6.49459H5.36768V5.36121H4.34083V3.84235H5.85915V5.16792H6.39235V3.84235H7.91174V5.16792H8.44494V3.84235H9.96326V5.16902H10.497V3.84235H12.0159V5.16902H12.5502V3.84235H14.069V5.16792H15.0953V6.68679H14.069V8.01125H12.5502V6.68679H12.0159V8.01345H10.4981V6.68679H9.96437V8.01181H8.44658V6.68679H7.91339V8.01125H6.39399V6.68679H5.86079V8.01291H4.34247L4.34083 6.49459ZM28.1237 11.5146V10.4982H3.87463V11.5146H28.1237ZM30.9451 23.7188H30.5914V27.6725H30.9451C30.9523 27.6725 30.9594 27.671 30.9661 27.6683C30.9727 27.6655 30.9788 27.6615 30.9839 27.6564C30.989 27.6513 30.9931 27.6452 30.9958 27.6386C30.9986 27.6319 31 27.6248 31 27.6175V23.7693C30.9992 23.7555 30.9932 23.7425 30.9832 23.733C30.9732 23.7234 30.96 23.718 30.9462 23.7177L30.9451 23.7188ZM30.9424 4.13393H30.5914V8.08758H30.9451C30.9523 8.08758 30.9594 8.08617 30.9661 8.08341C30.9727 8.08065 30.9788 8.0766 30.9839 8.0715C30.989 8.0664 30.9931 8.06035 30.9958 8.05368C30.9986 8.04702 31 8.03988 31 8.03267V4.18555C30.9988 4.17132 30.9923 4.15805 30.9819 4.14831C30.9714 4.13857 30.9577 4.13305 30.9434 4.13283L30.9424 4.13393ZM30.9424 13.9264H30.5914V17.88H30.9451C30.9523 17.88 30.9594 17.8786 30.9661 17.8758C30.9727 17.8731 30.9788 17.869 30.9839 17.8639C30.989 17.8588 30.9931 17.8528 30.9958 17.8461C30.9986 17.8395 31 17.8323 31 17.8251V13.9813C30.9996 13.9665 30.9935 13.9524 30.9829 13.9419C30.9724 13.9315 30.9582 13.9255 30.9434 13.9253L30.9424 13.9264ZM1 23.7721V27.6192C1.00097 27.6331 1.00717 27.6461 1.01736 27.6556C1.02756 27.665 1.04098 27.6703 1.0549 27.6703H1.40634V23.7166H1.0549C1.04062 23.7169 1.02701 23.7227 1.01696 23.7329C1.00691 23.743 1.00125 23.7567 1.00111 23.771L1 23.7721ZM1 13.9791V17.8229C1 17.8375 1.00579 17.8514 1.01609 17.8617C1.02639 17.872 1.04033 17.8778 1.0549 17.8778H1.40413V13.9242H1.05436C1.04027 13.9246 1.02687 13.9304 1.01696 13.9404C1.00704 13.9504 1.00138 13.9639 1.00111 13.978L1 13.9791ZM28.1237 21.3065V20.2906H3.87463V21.3065H28.1237ZM29.262 22.5849H2.73577C2.72856 22.5849 2.72142 22.5863 2.71476 22.5891C2.70809 22.5918 2.70202 22.5959 2.69693 22.601C2.69183 22.6061 2.68779 22.6121 2.68503 22.6188C2.68227 22.6254 2.68084 22.6326 2.68084 22.6398V28.7504C2.68084 28.7649 2.68663 28.7789 2.69693 28.7892C2.70722 28.7995 2.72121 28.8053 2.73577 28.8053H29.262C29.2766 28.8053 29.2906 28.7995 29.3009 28.7892C29.3112 28.7789 29.3169 28.7649 29.3169 28.7504V22.6354C29.3161 22.6216 29.3101 22.6086 29.3002 22.599C29.2902 22.5895 29.2769 22.584 29.2631 22.5838L29.262 22.5849ZM15.0948 26.2706H14.0685V27.5956H12.5496V26.27H12.0159V27.5967H10.4981V26.2706H9.96437V27.5956H8.44658V26.2711H7.91339V27.5967H6.39399V26.27H5.86079V27.5956H4.34247V26.0784H5.36932V24.9444H4.34247V23.4267H5.86079V24.7528H6.39399V23.4267H7.91339V24.7528H8.44658V23.4267H9.96491V24.7528H10.4986V23.4267H12.0159V24.7528H12.5502V23.4267H14.069V24.7528H15.0953L15.0948 26.2706ZM23.3969 26.2706H16.9777V24.7528H23.3974L23.3969 26.2706ZM27.6559 26.2706H26.1381V24.7528H27.6559V26.2706ZM2.73577 19.0112H29.2631C29.277 19.0112 29.2905 19.006 29.3007 18.9965C29.3109 18.987 29.3171 18.974 29.3181 18.9601V12.8441C29.3181 12.8368 29.3166 12.8297 29.3139 12.823C29.3111 12.8164 29.3071 12.8103 29.302 12.8052C29.2969 12.8001 29.2908 12.7961 29.2841 12.7933C29.2775 12.7906 29.2703 12.7891 29.2631 12.7891H2.73577C2.72121 12.7891 2.70722 12.7949 2.69693 12.8052C2.68663 12.8155 2.68084 12.8295 2.68084 12.8441V18.959C2.68154 18.9731 2.68764 18.9864 2.69786 18.9961C2.70809 19.0058 2.72167 19.0112 2.73577 19.0112ZM26.1386 14.9587H27.6564V16.4781H26.1386V14.9587ZM16.9777 14.9587H23.3974V16.4792H16.9777V14.9587ZM4.34194 16.2859H5.36878V15.1537H4.34194V13.6348H5.86026V14.9598H6.39342V13.6348H7.91285V14.9598H8.44605V13.6331H9.96437V14.9576H10.4981V13.6326H12.0159V14.9593H12.5502V13.6331H14.069V14.9576H15.0953V16.4781H14.069V17.8026H12.5502V16.477H12.0159V17.8037H10.4981V16.4781H9.96437V17.8037H8.44658V16.4781H7.91339V17.8037H6.39399V16.4781H5.86079V17.8037H4.34247L4.34194 16.2859ZM1.00111 4.18775V8.03158C1.00195 8.04556 1.00809 8.0587 1.0183 8.0683C1.02851 8.07789 1.04199 8.08322 1.056 8.08319H1.40581V4.12954H1.056C1.0486 4.12954 1.04126 4.13103 1.03445 4.13392C1.02764 4.13682 1.02152 4.14106 1.01639 4.14639C1.01126 4.15172 1.00725 4.15804 1.00463 4.16496C1.002 4.17188 1.00081 4.17926 1.00111 4.18665V4.18775Z" fill="#026DEB"/>
</svg>
