<svg width="32" height="32" viewBox="0 0 32 32" fill="none" xmlns="http://www.w3.org/2000/svg">
<g clip-path="url(#clip0_614_1108)">
<path d="M16 0C12.9131 0.00224797 9.8927 0.897427 7.30308 2.5776C4.71346 4.25777 2.66516 6.65119 1.40516 9.46926C0.145169 12.2873 -0.272718 15.4097 0.201889 18.46C0.676497 21.5102 2.02333 24.358 4.08 26.66C4.39325 27.0318 4.72711 27.3856 5.08 27.72C5.3 27.93 5.53 28.14 5.77 28.34C6.01 28.54 6.36 28.8 6.65 29H6C5.73478 29 5.48043 29.1054 5.29289 29.2929C5.10536 29.4804 5 29.7348 5 30C5 30.2652 5.10536 30.5196 5.29289 30.7071C5.48043 30.8946 5.73478 31 6 31H9C9.26522 31 9.51957 30.8946 9.70711 30.7071C9.89464 30.5196 10 30.2652 10 30V27C10 26.7348 9.89464 26.4804 9.70711 26.2929C9.51957 26.1054 9.26522 26 9 26C8.73478 26 8.48043 26.1054 8.29289 26.2929C8.10536 26.4804 8 26.7348 8 27V27.47C7.7 27.26 7.39 27.04 7.07 26.79C6.75 26.54 6.68 26.45 6.5 26.27C6.32 26.09 5.87 25.66 5.57 25.33C3.43364 22.9399 2.18222 19.8891 2.02485 16.6873C1.86747 13.4855 2.81368 10.3266 4.70535 7.73859C6.59703 5.15055 9.31958 3.29009 12.4181 2.46809C15.5166 1.64609 18.8033 1.91234 21.7291 3.22235C24.6549 4.53236 27.0425 6.80678 28.493 9.66556C29.9434 12.5243 30.3688 15.7943 29.6981 18.929C29.0275 22.0638 27.3013 24.8734 24.8081 26.8884C22.3149 28.9035 19.2057 30.0018 16 30C15.0595 30.004 14.1211 29.9101 13.2 29.72C13.0687 29.6937 12.9335 29.6936 12.8021 29.7196C12.6707 29.7456 12.5457 29.7972 12.4343 29.8715C12.3229 29.9458 12.2272 30.0413 12.1527 30.1525C12.0781 30.2638 12.0263 30.3887 12 30.52C11.9737 30.6513 11.9736 30.7865 11.9996 30.9179C12.0256 31.0493 12.0772 31.1743 12.1515 31.2857C12.2258 31.3971 12.3213 31.4928 12.4325 31.5673C12.5438 31.6419 12.6687 31.6937 12.8 31.72C14.9788 32.1318 17.2194 32.0863 19.3796 31.5863C21.5398 31.0862 23.5726 30.1427 25.3488 28.8154C27.1251 27.4882 28.606 25.8062 29.6978 23.8763C30.7895 21.9463 31.4682 19.8105 31.6908 17.6043C31.9133 15.3982 31.6749 13.1699 30.9906 11.0607C30.3064 8.95161 29.1912 7.00774 27.7158 5.35246C26.2405 3.69717 24.4371 2.36662 22.4203 1.44521C20.4035 0.523799 18.2171 0.0316543 16 0Z" fill="#026DEB"/>
<path d="M26 16C26 14.0222 25.4135 12.0888 24.3147 10.4443C23.2159 8.79981 21.6541 7.51809 19.8268 6.76121C17.9996 6.00433 15.9889 5.8063 14.0491 6.19215C12.1093 6.578 10.3275 7.53041 8.92894 8.92894C7.53041 10.3275 6.578 12.1093 6.19215 14.0491C5.8063 15.9889 6.00433 17.9996 6.76121 19.8268C7.51809 21.6541 8.79981 23.2159 10.4443 24.3147C12.0888 25.4135 14.0222 26 16 26C18.6522 26 21.1957 24.9464 23.0711 23.0711C24.9464 21.1957 26 18.6522 26 16ZM8 16C8 14.4178 8.4692 12.871 9.34825 11.5554C10.2273 10.2398 11.4767 9.21447 12.9385 8.60897C14.4003 8.00347 16.0089 7.84504 17.5607 8.15372C19.1126 8.4624 20.538 9.22433 21.6569 10.3431C22.7757 11.462 23.5376 12.8874 23.8463 14.4393C24.155 15.9911 23.9965 17.5997 23.391 19.0615C22.7855 20.5233 21.7602 21.7727 20.4446 22.6518C19.129 23.5308 17.5823 24 16 24C13.8783 24 11.8434 23.1572 10.3431 21.6569C8.84286 20.1566 8 18.1217 8 16Z" fill="#026DEB"/>
<path d="M17 21V20.82C17.6614 20.58 18.2174 20.1152 18.5708 19.5069C18.9242 18.8985 19.0525 18.1853 18.9334 17.4919C18.8143 16.7985 18.4552 16.169 17.919 15.7135C17.3828 15.258 16.7035 15.0055 16 15C15.7348 15 15.4804 14.8946 15.2929 14.7071C15.1054 14.5196 15 14.2652 15 14C15 13.7348 15.1054 13.4804 15.2929 13.2929C15.4804 13.1054 15.7348 13 16 13H18C18.2652 13 18.5196 12.8946 18.7071 12.7071C18.8946 12.5196 19 12.2652 19 12C19 11.7348 18.8946 11.4804 18.7071 11.2929C18.5196 11.1054 18.2652 11 18 11H17C17 10.7348 16.8946 10.4804 16.7071 10.2929C16.5196 10.1054 16.2652 10 16 10C15.7348 10 15.4804 10.1054 15.2929 10.2929C15.1054 10.4804 15 10.7348 15 11V11.18C14.3386 11.42 13.7826 11.8848 13.4292 12.4931C13.0758 13.1015 12.9475 13.8147 13.0666 14.5081C13.1857 15.2015 13.5448 15.831 14.081 16.2865C14.6172 16.742 15.2965 16.9945 16 17C16.2652 17 16.5196 17.1054 16.7071 17.2929C16.8946 17.4804 17 17.7348 17 18C17 18.2652 16.8946 18.5196 16.7071 18.7071C16.5196 18.8946 16.2652 19 16 19H14C13.7348 19 13.4804 19.1054 13.2929 19.2929C13.1054 19.4804 13 19.7348 13 20C13 20.2652 13.1054 20.5196 13.2929 20.7071C13.4804 20.8946 13.7348 21 14 21H15C15 21.2652 15.1054 21.5196 15.2929 21.7071C15.4804 21.8946 15.7348 22 16 22C16.2652 22 16.5196 21.8946 16.7071 21.7071C16.8946 21.5196 17 21.2652 17 21Z" fill="#026DEB"/>
</g>
<defs>
<clipPath id="clip0_614_1108">
<rect width="32" height="32" fill="white"/>
</clipPath>
</defs>
</svg>
