<svg width="32" height="32" viewBox="0 0 32 32" fill="none" xmlns="http://www.w3.org/2000/svg">
<g clip-path="url(#clip0_614_1097)">
<path d="M21 28C22.1046 28 23 27.1046 23 26C23 24.8954 22.1046 24 21 24C19.8954 24 19 24.8954 19 26C19 27.1046 19.8954 28 21 28Z" fill="#026DEB"/>
<path d="M21 8C22.1046 8 23 7.10457 23 6C23 4.89543 22.1046 4 21 4C19.8954 4 19 4.89543 19 6C19 7.10457 19.8954 8 21 8Z" fill="#026DEB"/>
<path d="M4 18C5.10457 18 6 17.1046 6 16C6 14.8954 5.10457 14 4 14C2.89543 14 2 14.8954 2 16C2 17.1046 2.89543 18 4 18Z" fill="#026DEB"/>
<path d="M28 12C27.1156 12.0027 26.2571 12.2987 25.559 12.8415C24.8609 13.3844 24.3626 14.1436 24.1421 15H19.8579C19.7163 14.436 19.4524 13.91 19.0849 13.4594C18.7174 13.0087 18.2553 12.6444 17.7313 12.3922C17.2073 12.1401 16.6343 12.0062 16.0528 12.0002C15.4713 11.9942 14.8956 12.1161 14.3665 12.3574L11.19 8.3872C11.7127 7.70086 11.9971 6.86269 12 6C12 5.20888 11.7654 4.43552 11.3259 3.77772C10.8864 3.11992 10.2616 2.60723 9.53074 2.30448C8.79983 2.00173 7.99556 1.92252 7.21964 2.07686C6.44372 2.2312 5.73098 2.61216 5.17157 3.17157C4.61216 3.73098 4.2312 4.44372 4.07686 5.21964C3.92252 5.99556 4.00173 6.79983 4.30448 7.53074C4.60723 8.26164 5.11992 8.88636 5.77772 9.32588C6.43552 9.76541 7.20888 10 8 10C8.56384 9.99854 9.12086 9.87669 9.6338 9.6426L12.8098 13.6126C12.2847 14.2976 12.0001 15.1367 12.0001 15.9998C12.0001 16.8629 12.2847 17.702 12.8098 18.387L9.634 22.357C9.12096 22.123 8.56387 22.0013 8 22C7.20888 22 6.43552 22.2346 5.77772 22.6741C5.11992 23.1137 4.60723 23.7384 4.30448 24.4693C4.00173 25.2002 3.92252 26.0044 4.07686 26.7804C4.2312 27.5563 4.61216 28.269 5.17157 28.8284C5.73098 29.3878 6.44372 29.7688 7.21964 29.9231C7.99556 30.0775 8.79983 29.9983 9.53074 29.6955C10.2616 29.3928 10.8864 28.8801 11.3259 28.2223C11.7654 27.5645 12 26.7911 12 26C11.9971 25.1373 11.7127 24.2991 11.19 23.6128L14.3658 19.6428C14.895 19.8841 15.4707 20.0061 16.0523 20.0001C16.6338 19.9941 17.207 19.8603 17.731 19.6081C18.2551 19.3559 18.7173 18.9916 19.0848 18.5409C19.4524 18.0901 19.7163 17.5641 19.8579 17H24.1421C24.3303 17.7227 24.7175 18.3781 25.2595 18.8919C25.8016 19.4056 26.4768 19.757 27.2086 19.9063C27.9403 20.0555 28.6993 19.9965 29.3992 19.7361C30.0991 19.4757 30.712 19.0242 31.1682 18.4329C31.6244 17.8416 31.9057 17.1343 31.9801 16.3912C32.0545 15.648 31.919 14.899 31.589 14.229C31.2591 13.559 30.7479 12.995 30.1134 12.601C29.479 12.207 28.7468 11.9988 28 12ZM6 6C6 5.60444 6.1173 5.21776 6.33706 4.88886C6.55683 4.55996 6.86918 4.30362 7.23463 4.15224C7.60009 4.00087 8.00222 3.96126 8.39018 4.03843C8.77814 4.1156 9.13451 4.30608 9.41422 4.58579C9.69392 4.86549 9.8844 5.22186 9.96157 5.60982C10.0387 5.99778 9.99914 6.39992 9.84776 6.76537C9.69639 7.13082 9.44004 7.44318 9.11114 7.66294C8.78224 7.8827 8.39556 8 8 8C7.46976 7.99939 6.9614 7.78848 6.58646 7.41354C6.21152 7.0386 6.00061 6.53025 6 6ZM8 28C7.60444 28 7.21776 27.8827 6.88886 27.6629C6.55996 27.4432 6.30362 27.1308 6.15224 26.7654C6.00087 26.3999 5.96126 25.9978 6.03843 25.6098C6.1156 25.2219 6.30608 24.8655 6.58579 24.5858C6.86549 24.3061 7.22186 24.1156 7.60982 24.0384C7.99778 23.9613 8.39992 24.0009 8.76537 24.1522C9.13082 24.3036 9.44318 24.56 9.66294 24.8889C9.8827 25.2178 10 25.6044 10 26C9.99939 26.5303 9.78848 27.0386 9.41354 27.4135C9.0386 27.7885 8.53025 27.9994 8 28ZM16 18C15.6044 18 15.2178 17.8827 14.8889 17.6629C14.56 17.4432 14.3036 17.1308 14.1522 16.7654C14.0009 16.3999 13.9613 15.9978 14.0384 15.6098C14.1156 15.2219 14.3061 14.8655 14.5858 14.5858C14.8655 14.3061 15.2219 14.1156 15.6098 14.0384C15.9978 13.9613 16.3999 14.0009 16.7654 14.1522C17.1308 14.3036 17.4432 14.56 17.6629 14.8889C17.8827 15.2178 18 15.6044 18 16C17.9994 16.5302 17.7885 17.0386 17.4135 17.4135C17.0386 17.7885 16.5302 17.9994 16 18ZM28 18C27.6044 18 27.2178 17.8827 26.8889 17.6629C26.56 17.4432 26.3036 17.1308 26.1522 16.7654C26.0009 16.3999 25.9613 15.9978 26.0384 15.6098C26.1156 15.2219 26.3061 14.8655 26.5858 14.5858C26.8655 14.3061 27.2219 14.1156 27.6098 14.0384C27.9978 13.9613 28.3999 14.0009 28.7654 14.1522C29.1308 14.3036 29.4432 14.56 29.6629 14.8889C29.8827 15.2178 30 15.6044 30 16C29.9994 16.5302 29.7885 17.0386 29.4135 17.4135C29.0386 17.7885 28.5302 17.9994 28 18Z" fill="#026DEB"/>
</g>
<defs>
<clipPath id="clip0_614_1097">
<rect width="32" height="32" fill="white"/>
</clipPath>
</defs>
</svg>
