<svg width="38" height="46" viewBox="0 0 38 46" fill="none" xmlns="http://www.w3.org/2000/svg">
<path d="M2.3999 40.5005V9.46712C2.3999 6.85354 2.3999 5.54578 2.92307 4.54753C3.38326 3.66944 4.11704 2.95605 5.02021 2.50864C6.04699 2 7.39212 2 10.0804 2H32.1604C33.5045 2 34.1775 2 34.6909 2.25432C35.1425 2.47802 35.5073 2.83472 35.7374 3.27376C35.999 3.77289 35.9999 4.42677 35.9999 5.73356V33.2669C35.9999 34.5737 35.999 35.2262 35.7374 35.7253C35.5073 36.1643 35.1429 36.5222 34.6914 36.7459C34.1785 37 33.5063 37 32.1648 37H7.7999C4.81756 37 2.3999 39.3505 2.3999 42.25C2.3999 43.2165 3.20579 44 4.1999 44H29.7648C31.1063 44 31.7785 44 32.2914 43.7459C32.7429 43.5222 33.1073 43.1646 33.3374 42.7255C33.599 42.2264 33.5999 41.5735 33.5999 40.2667V37" stroke="#026DEB" stroke-width="3" stroke-linecap="round" stroke-linejoin="round"/>
<path d="M17.46 12.8V14.36M22.14 12.8V14.36M17.46 26.84V28.4M22.14 26.84V28.4M26.04 18.26H27.6M26.04 22.16H27.6M12 18.26H13.56M12 22.16H13.56M17.304 26.84H22.296C23.6065 26.84 24.2618 26.84 24.7623 26.585C25.2026 26.3607 25.5606 26.0027 25.785 25.5624C26.04 25.0618 26.04 24.4066 26.04 23.096V18.104C26.04 16.7935 26.04 16.1383 25.785 15.6377C25.5606 15.1974 25.2026 14.8394 24.7623 14.6151C24.2618 14.36 23.6065 14.36 22.296 14.36H17.304C15.9935 14.36 15.3382 14.36 14.8377 14.6151C14.3974 14.8394 14.0394 15.1974 13.815 15.6377C13.56 16.1383 13.56 16.7935 13.56 18.104V23.096C13.56 24.4066 13.56 25.0618 13.815 25.5624C14.0394 26.0027 14.3974 26.3607 14.8377 26.585C15.3382 26.84 15.9935 26.84 17.304 26.84ZM18.708 22.94H20.892C21.3288 22.94 21.5473 22.94 21.7141 22.855C21.8609 22.7803 21.9802 22.6609 22.055 22.5142C22.14 22.3473 22.14 22.1289 22.14 21.692V19.508C22.14 19.0712 22.14 18.8528 22.055 18.6859C21.9802 18.5392 21.8609 18.4198 21.7141 18.3451C21.5473 18.26 21.3288 18.26 20.892 18.26H18.708C18.2712 18.26 18.0527 18.26 17.8859 18.3451C17.7391 18.4198 17.6198 18.5392 17.545 18.6859C17.46 18.8528 17.46 19.0712 17.46 19.508V21.692C17.46 22.1289 17.46 22.3473 17.545 22.5142C17.6198 22.6609 17.7391 22.7803 17.8859 22.855C18.0527 22.94 18.2712 22.94 18.708 22.94Z" stroke="#026DEB" stroke-width="2" stroke-linecap="round" stroke-linejoin="round"/>
</svg>
