<svg width="37" height="46" viewBox="0 0 37 46" fill="none" xmlns="http://www.w3.org/2000/svg">
<path d="M17.0604 43.4676C17.517 43.7463 17.7453 43.8856 18.0675 43.9579C18.3176 44.014 18.6824 44.014 18.9325 43.9579C19.2547 43.8856 19.483 43.7463 19.9396 43.4676C23.9575 41.0154 35 33.3123 35 22.7211V14.5216C35 12.2044 35 11.0458 34.6586 10.2234C34.3116 9.38748 33.9658 8.9428 33.2542 8.41716C32.5541 7.89998 31.1815 7.60135 28.4365 7.00407C25.411 6.34578 23.0876 5.15707 20.9634 3.43796C19.9448 2.61358 19.4355 2.2014 19.0369 2.08897C18.6164 1.97034 18.3836 1.97034 17.9631 2.08897C17.5645 2.2014 17.0552 2.61358 16.0366 3.43796C13.9124 5.15708 11.589 6.34578 8.56349 7.00407C5.81846 7.60135 4.44594 7.89998 3.7458 8.41716C3.03418 8.9428 2.68843 9.38748 2.34142 10.2234C2 11.0458 2 12.2044 2 14.5216V22.7211C2 33.3123 13.0425 41.0154 17.0604 43.4676Z" stroke="#026DEB" stroke-width="3" stroke-linecap="round" stroke-linejoin="round"/>
</svg>
